<svg width="270" height="329" viewBox="0 0 270 329" fill="none" xmlns="http://www.w3.org/2000/svg">
<g id="Mask Group">
<mask id="mask0" mask-type="alpha" maskUnits="userSpaceOnUse" x="0" y="0" width="270" height="329">
<path id="Vector" d="M230.524 96.6234C256.577 122.977 270 158.103 270 192.446C270 226.789 256.577 262.716 230.524 289.07C204.47 315.423 169.744 329 135 329C100.256 329 65.5296 315.423 39.476 289.07C13.4225 262.716 0 226.789 0 192.446C0 158.103 13.4225 122.977 39.476 96.6234L135 0L230.524 96.6234Z" fill="#FF7A00"/>
</mask>
<g mask="url(#mask0)">
<rect id="Rectangle 18" y="-21" width="270" height="370" rx="80" fill="#F2EEF5"/>
<path id="1 Hodina" d="M143.153 148.64C143.153 152.4 143.993 155 145.673 156.44C147.433 157.8 150.433 158.48 154.673 158.48V161C146.033 160.68 140.513 160.52 138.113 160.52C135.873 160.52 130.673 160.64 122.513 160.88L119.633 161V158.48C123.873 158.48 127.033 157.76 129.113 156.32C131.273 154.88 132.353 152.32 132.353 148.64V119.6C132.353 115.76 131.953 112.96 131.153 111.2C130.353 109.36 128.993 108.16 127.073 107.6C125.233 106.96 122.353 106.64 118.433 106.64V104C124.273 103.84 129.073 103.32 132.833 102.44C136.673 101.56 140.113 100.04 143.153 97.88V148.64ZM107.612 191.36C106.892 191.4 106.362 191.48 106.022 191.6C105.702 191.72 105.482 191.95 105.362 192.29C105.242 192.63 105.182 193.18 105.182 193.94V208.82C105.182 209.58 105.242 210.13 105.362 210.47C105.482 210.81 105.702 211.04 106.022 211.16C106.362 211.28 106.892 211.36 107.612 211.4V212C106.772 211.94 105.492 211.91 103.772 211.91C102.152 211.91 100.882 211.94 99.9621 212V211.4C100.682 211.36 101.202 211.28 101.522 211.16C101.862 211.04 102.092 210.81 102.212 210.47C102.332 210.13 102.392 209.58 102.392 208.82V201.62H92.6421V208.82C92.6421 209.58 92.7021 210.13 92.8221 210.47C92.9421 210.81 93.1621 211.04 93.4821 211.16C93.8221 211.28 94.3521 211.36 95.0721 211.4V212C94.1521 211.94 92.8821 211.91 91.2621 211.91C89.5421 211.91 88.2621 211.94 87.4221 212V211.4C88.1421 211.36 88.6621 211.28 88.9821 211.16C89.3221 211.04 89.5521 210.81 89.6721 210.47C89.7921 210.13 89.8521 209.58 89.8521 208.82V193.94C89.8521 193.18 89.7921 192.63 89.6721 192.29C89.5521 191.95 89.3221 191.72 88.9821 191.6C88.6621 191.48 88.1421 191.4 87.4221 191.36V190.76C88.2621 190.82 89.5421 190.85 91.2621 190.85C92.8621 190.85 94.1321 190.82 95.0721 190.76V191.36C94.3521 191.4 93.8221 191.48 93.4821 191.6C93.1621 191.72 92.9421 191.95 92.8221 192.29C92.7021 192.63 92.6421 193.18 92.6421 193.94V201.02H102.392V193.94C102.392 193.18 102.332 192.63 102.212 192.29C102.092 191.95 101.862 191.72 101.522 191.6C101.202 191.48 100.682 191.4 99.9621 191.36V190.76C100.882 190.82 102.152 190.85 103.772 190.85C105.492 190.85 106.772 190.82 107.612 190.76V191.36ZM116.56 196.13C118.6 196.13 120.24 196.81 121.48 198.17C122.74 199.51 123.37 201.55 123.37 204.29C123.37 207.03 122.74 209.07 121.48 210.41C120.24 211.75 118.6 212.42 116.56 212.42C114.52 212.42 112.87 211.75 111.61 210.41C110.37 209.07 109.75 207.03 109.75 204.29C109.75 201.55 110.37 199.51 111.61 198.17C112.87 196.81 114.52 196.13 116.56 196.13ZM116.56 196.73C115.36 196.73 114.41 197.35 113.71 198.59C113.01 199.81 112.66 201.71 112.66 204.29C112.66 206.87 113.01 208.77 113.71 209.99C114.41 211.21 115.36 211.82 116.56 211.82C117.76 211.82 118.71 211.21 119.41 209.99C120.11 208.77 120.46 206.87 120.46 204.29C120.46 201.71 120.11 199.81 119.41 198.59C118.71 197.35 117.76 196.73 116.56 196.73ZM139.295 208.73C139.295 209.65 139.465 210.32 139.805 210.74C140.145 211.16 140.735 211.37 141.575 211.37V212C140.955 211.94 140.335 211.91 139.715 211.91C138.455 211.91 137.415 212.05 136.595 212.33V209.66C136.235 210.56 135.695 211.25 134.975 211.73C134.255 212.19 133.375 212.42 132.335 212.42C130.415 212.42 128.905 211.73 127.805 210.35C126.725 208.97 126.195 206.95 126.215 204.29C126.215 202.55 126.515 201.07 127.115 199.85C127.735 198.61 128.555 197.68 129.575 197.06C130.615 196.44 131.755 196.13 132.995 196.13C133.755 196.13 134.445 196.28 135.065 196.58C135.705 196.86 136.215 197.3 136.595 197.9V192.08C136.595 191.16 136.425 190.49 136.085 190.07C135.745 189.65 135.155 189.44 134.315 189.44V188.81C134.955 188.87 135.575 188.9 136.175 188.9C137.435 188.9 138.475 188.76 139.295 188.48V208.73ZM133.205 211.52C133.985 211.52 134.685 211.22 135.305 210.62C135.925 210.02 136.355 209.17 136.595 208.07V199.13C136.055 197.59 134.935 196.82 133.235 196.82C131.995 196.82 130.995 197.46 130.235 198.74C129.475 200 129.105 201.85 129.125 204.29C129.105 206.69 129.445 208.5 130.145 209.72C130.845 210.92 131.865 211.52 133.205 211.52ZM146.497 189.05C147.017 189.05 147.467 189.24 147.847 189.62C148.227 190 148.417 190.45 148.417 190.97C148.417 191.49 148.227 191.94 147.847 192.32C147.467 192.7 147.017 192.89 146.497 192.89C145.977 192.89 145.527 192.7 145.147 192.32C144.767 191.94 144.577 191.49 144.577 190.97C144.577 190.45 144.767 190 145.147 189.62C145.527 189.24 145.977 189.05 146.497 189.05ZM148.057 209.21C148.057 210.03 148.227 210.6 148.567 210.92C148.907 211.22 149.497 211.37 150.337 211.37V212C148.497 211.92 147.287 211.88 146.707 211.88C146.127 211.88 144.917 211.92 143.077 212V211.37C143.917 211.37 144.507 211.22 144.847 210.92C145.187 210.6 145.357 210.03 145.357 209.21V199.82C145.357 198.9 145.187 198.23 144.847 197.81C144.507 197.39 143.917 197.18 143.077 197.18V196.55C143.717 196.61 144.337 196.64 144.937 196.64C146.197 196.64 147.237 196.5 148.057 196.22V209.21ZM161.946 196.13C163.346 196.13 164.406 196.51 165.126 197.27C165.506 197.67 165.776 198.17 165.936 198.77C166.096 199.37 166.176 200.18 166.176 201.2V209.21C166.176 210.03 166.346 210.6 166.686 210.92C167.026 211.22 167.616 211.37 168.456 211.37V212C166.616 211.92 165.416 211.88 164.856 211.88C164.296 211.88 163.176 211.92 161.496 212V211.37C162.236 211.37 162.746 211.22 163.026 210.92C163.326 210.6 163.476 210.03 163.476 209.21V200.54C163.476 199.42 163.316 198.57 162.996 197.99C162.676 197.39 162.026 197.09 161.046 197.09C160.226 197.09 159.496 197.33 158.856 197.81C158.216 198.29 157.716 198.95 157.356 199.79C157.016 200.61 156.846 201.53 156.846 202.55V209.21C156.846 210.03 156.986 210.6 157.266 210.92C157.566 211.22 158.086 211.37 158.826 211.37V212C157.146 211.92 156.026 211.88 155.466 211.88C154.906 211.88 153.706 211.92 151.866 212V211.37C152.706 211.37 153.296 211.22 153.636 210.92C153.976 210.6 154.146 210.03 154.146 209.21V199.82C154.146 198.9 153.976 198.23 153.636 197.81C153.296 197.39 152.706 197.18 151.866 197.18V196.55C152.506 196.61 153.126 196.64 153.726 196.64C154.986 196.64 156.026 196.5 156.846 196.22V199.76C157.346 198.48 158.036 197.56 158.916 197C159.816 196.42 160.826 196.13 161.946 196.13ZM173.786 212.21C172.526 212.21 171.586 211.9 170.966 211.28C170.366 210.64 170.066 209.76 170.066 208.64C170.066 207.74 170.306 207 170.786 206.42C171.286 205.84 171.866 205.38 172.526 205.04C173.206 204.7 174.096 204.34 175.196 203.96C176.316 203.58 177.146 203.23 177.686 202.91C178.226 202.59 178.496 202.16 178.496 201.62V199.76C178.496 198.6 178.246 197.81 177.746 197.39C177.266 196.95 176.586 196.73 175.706 196.73C174.306 196.73 173.316 197.09 172.736 197.81C173.136 197.91 173.466 198.12 173.726 198.44C174.006 198.76 174.146 199.16 174.146 199.64C174.146 200.14 173.986 200.54 173.666 200.84C173.346 201.12 172.936 201.26 172.436 201.26C171.876 201.26 171.456 201.09 171.176 200.75C170.896 200.39 170.756 199.96 170.756 199.46C170.756 198.98 170.866 198.58 171.086 198.26C171.326 197.94 171.676 197.62 172.136 197.3C172.616 196.96 173.226 196.68 173.966 196.46C174.706 196.24 175.516 196.13 176.396 196.13C177.956 196.13 179.136 196.5 179.936 197.24C180.436 197.7 180.766 198.26 180.926 198.92C181.106 199.56 181.196 200.41 181.196 201.47V209.81C181.196 210.31 181.266 210.67 181.406 210.89C181.546 211.11 181.786 211.22 182.126 211.22C182.366 211.22 182.586 211.17 182.786 211.07C183.006 210.95 183.236 210.79 183.476 210.59L183.806 211.1C183.286 211.5 182.836 211.79 182.456 211.97C182.096 212.13 181.636 212.21 181.076 212.21C180.116 212.21 179.446 211.97 179.066 211.49C178.686 211.01 178.496 210.36 178.496 209.54C177.896 210.54 177.206 211.24 176.426 211.64C175.646 212.02 174.766 212.21 173.786 212.21ZM175.106 211.01C176.426 211.01 177.556 210.25 178.496 208.73V202.85C178.316 203.13 178.066 203.36 177.746 203.54C177.426 203.72 176.936 203.96 176.276 204.26C175.516 204.58 174.896 204.89 174.416 205.19C173.956 205.47 173.556 205.86 173.216 206.36C172.876 206.86 172.706 207.5 172.706 208.28C172.706 209.18 172.926 209.86 173.366 210.32C173.806 210.78 174.386 211.01 175.106 211.01Z" fill="#69498C"/>
<g id="Group 34">
<mask id="mask1" mask-type="alpha" maskUnits="userSpaceOnUse" x="0" y="218" width="714" height="282">
<path id="Intersect" d="M0 219.064L0 499.5H714V230.494C680.181 230.494 664.136 227.828 645.652 224.732L645.519 224.71C626.592 221.564 605.142 218 564.17 218C523.142 218 501.691 221.564 482.765 224.709L482.628 224.732C464.084 227.828 448.097 230.494 414.28 230.494C380.403 230.494 364.417 227.828 345.873 224.732C326.974 221.581 305.46 218 264.39 218C223.363 218 201.912 221.564 182.986 224.709L182.849 224.732C164.306 227.828 148.319 230.494 114.501 230.494C80.6538 230.494 64.667 227.833 46.0843 224.74L46.0338 224.732C33.4948 222.642 19.8052 220.362 0 219.064Z" fill="#69498C"/>
</mask>
<g mask="url(#mask1)">
<path id="Intersect_2" d="M0 219.064L0 499.5H714V230.494C680.181 230.494 664.136 227.828 645.652 224.732L645.519 224.71C626.592 221.564 605.142 218 564.17 218C523.142 218 501.691 221.564 482.765 224.709L482.628 224.732C464.084 227.828 448.097 230.494 414.28 230.494C380.403 230.494 364.417 227.828 345.873 224.732C326.974 221.581 305.46 218 264.39 218C223.363 218 201.912 221.564 182.986 224.709L182.849 224.732C164.306 227.828 148.319 230.494 114.501 230.494C80.6538 230.494 64.667 227.833 46.0843 224.74L46.0338 224.732C33.4948 222.642 19.8052 220.362 0 219.064Z" fill="#69498C"/>
</g>
</g>
<path id="799,- K&#196;&#141;" d="M95.9855 251.8H105.706V253.3C104.039 255.047 102.832 256.88 102.086 258.8C101.352 260.707 100.986 262.773 100.986 265H99.3455C99.3455 262.867 99.7255 260.807 100.486 258.82C101.259 256.82 102.419 254.98 103.966 253.3H95.9855V251.8ZM112.336 251.6C113.443 251.6 114.376 251.893 115.136 252.48C115.896 253.053 116.47 253.853 116.856 254.88C117.243 255.893 117.436 257.067 117.436 258.4C117.436 260.613 117.003 262.3 116.136 263.46C115.283 264.62 114.023 265.2 112.356 265.2C111.263 265.2 110.323 264.947 109.536 264.44C108.75 263.933 108.163 263.193 107.776 262.22L109.356 261.38C109.57 262.073 109.916 262.633 110.396 263.06C110.89 263.487 111.563 263.7 112.416 263.7C113.336 263.7 114.056 263.46 114.576 262.98C115.096 262.5 115.456 261.82 115.656 260.94C115.87 260.06 115.976 259.033 115.976 257.86V257.68H115.896C115.736 258.28 115.456 258.767 115.056 259.14C114.656 259.5 114.203 259.76 113.696 259.92C113.203 260.08 112.71 260.16 112.216 260.16C111.35 260.16 110.583 259.993 109.916 259.66C109.25 259.313 108.73 258.833 108.356 258.22C107.983 257.607 107.796 256.88 107.796 256.04C107.796 254.693 108.196 253.62 108.996 252.82C109.81 252.007 110.923 251.6 112.336 251.6ZM112.356 253.14C111.423 253.14 110.71 253.4 110.216 253.92C109.723 254.427 109.476 255.14 109.476 256.06C109.476 256.847 109.736 257.473 110.256 257.94C110.776 258.393 111.476 258.62 112.356 258.62C113.223 258.62 113.916 258.367 114.436 257.86C114.97 257.353 115.236 256.7 115.236 255.9C115.236 255.073 114.97 254.407 114.436 253.9C113.916 253.393 113.223 253.14 112.356 253.14ZM124.68 251.6C125.787 251.6 126.72 251.893 127.48 252.48C128.24 253.053 128.814 253.853 129.2 254.88C129.587 255.893 129.78 257.067 129.78 258.4C129.78 260.613 129.347 262.3 128.48 263.46C127.627 264.62 126.367 265.2 124.7 265.2C123.607 265.2 122.667 264.947 121.88 264.44C121.094 263.933 120.507 263.193 120.12 262.22L121.7 261.38C121.914 262.073 122.26 262.633 122.74 263.06C123.234 263.487 123.907 263.7 124.76 263.7C125.68 263.7 126.4 263.46 126.92 262.98C127.44 262.5 127.8 261.82 128 260.94C128.214 260.06 128.32 259.033 128.32 257.86V257.68H128.24C128.08 258.28 127.8 258.767 127.4 259.14C127 259.5 126.547 259.76 126.04 259.92C125.547 260.08 125.054 260.16 124.56 260.16C123.694 260.16 122.927 259.993 122.26 259.66C121.594 259.313 121.074 258.833 120.7 258.22C120.327 257.607 120.14 256.88 120.14 256.04C120.14 254.693 120.54 253.62 121.34 252.82C122.154 252.007 123.267 251.6 124.68 251.6ZM124.7 253.14C123.767 253.14 123.054 253.4 122.56 253.92C122.067 254.427 121.82 255.14 121.82 256.06C121.82 256.847 122.08 257.473 122.6 257.94C123.12 258.393 123.82 258.62 124.7 258.62C125.567 258.62 126.26 258.367 126.78 257.86C127.314 257.353 127.58 256.7 127.58 255.9C127.58 255.073 127.314 254.407 126.78 253.9C126.26 253.393 125.567 253.14 124.7 253.14ZM133.471 262.6C133.937 262.6 134.304 262.78 134.571 263.14C134.837 263.5 134.971 263.967 134.971 264.54C134.971 265.207 134.797 265.847 134.451 266.46C134.104 267.073 133.551 267.56 132.791 267.92L131.951 267.14C132.497 266.953 132.937 266.667 133.271 266.28C133.604 265.907 133.817 265.513 133.911 265.1L133.831 265.06C133.777 265.1 133.711 265.133 133.631 265.16C133.551 265.187 133.431 265.2 133.271 265.2C133.031 265.2 132.784 265.1 132.531 264.9C132.291 264.687 132.171 264.367 132.171 263.94C132.171 263.58 132.297 263.267 132.551 263C132.804 262.733 133.111 262.6 133.471 262.6ZM142.726 258.94V260.6H136.126V258.94H142.726ZM155.098 251.8V258.6L161.738 251.8H163.838L158.578 257.18L163.898 265H161.978L157.458 258.36L155.098 260.76V265H153.498V251.8H155.098ZM169.623 254.8C170.65 254.8 171.503 255.04 172.183 255.52C172.863 255.987 173.39 256.633 173.763 257.46L172.243 258.18C172.03 257.54 171.703 257.053 171.263 256.72C170.836 256.373 170.276 256.2 169.583 256.2C168.583 256.2 167.796 256.54 167.223 257.22C166.663 257.887 166.383 258.813 166.383 260C166.383 261.187 166.663 262.12 167.223 262.8C167.796 263.467 168.583 263.8 169.583 263.8C170.37 263.8 170.996 263.62 171.463 263.26C171.93 262.9 172.236 262.393 172.383 261.74L173.863 262.26C173.53 263.18 173.003 263.9 172.283 264.42C171.576 264.94 170.69 265.2 169.623 265.2C168.69 265.2 167.856 264.993 167.123 264.58C166.39 264.167 165.816 263.573 165.403 262.8C164.99 262.013 164.783 261.08 164.783 260C164.783 258.92 164.99 257.993 165.403 257.22C165.816 256.433 166.39 255.833 167.123 255.42C167.856 255.007 168.69 254.8 169.623 254.8ZM172.643 250L170.363 253.34H168.563L166.283 250H167.743L169.463 252.3L171.183 250H172.643Z" fill="#F5F2EF"/>
</g>
</g>
</svg>
