<?xml version="1.0" encoding="UTF-8" standalone="no"?>
<svg width="40" height="48" viewBox="0 0 40 48" fill="none" version="1.1" id="svg11" sodipodi:docname="icon.svg" inkscape:version="1.1 (c4e8f9e, 2021-05-24)" xmlns:inkscape="http://www.inkscape.org/namespaces/inkscape" xmlns:sodipodi="http://sodipodi.sourceforge.net/DTD/sodipodi-0.dtd" xmlns="http://www.w3.org/2000/svg" xmlns:svg="http://www.w3.org/2000/svg">
	<defs id="defs15" />
	<namedview id="namedview13" pagecolor="#ffffff" bordercolor="#666666" borderopacity="1.0" inkscape:pageshadow="2" inkscape:pageopacity="0.0" inkscape:pagecheckerboard="0" showgrid="false" inkscape:zoom="5.3958333" inkscape:cx="-6.2084942" inkscape:cy="24" inkscape:window-width="1366" inkscape:window-height="703" inkscape:window-x="0" inkscape:window-y="0" inkscape:window-maximized="1" inkscape:current-layer="svg11" inkscape:snap-global="true" inkscape:snap-nodes="true" />
	<mask id="mask0" mask-type="alpha" maskUnits="userSpaceOnUse" x="0" y="0" width="40" height="48">
		<path d="M5.8483 14.097C1.98853 17.9419 0 23.0667 0 28.0773C0 33.0878 1.98853 38.3294 5.8483 42.1743C9.70809 46.0192 14.8528 48 20 48C25.1472 48 30.2919 46.0192 34.1517 42.1743C38.0115 38.3294 40 33.0878 40 28.0773C40 23.0667 38.0115 17.9419 34.1517 14.097L20 0L5.8483 14.097Z" fill="white" id="path2" />
	</mask>
	<g mask="url(#mask0)" id="g9">
		<rect x="0.000244141" width="40" height="48" fill="white" id="rect5" />
		<path d="M58.8623 28.5602C63.8132 26.4668 69.4358 24.0926 80.0002 24.0026C80.1862 24.0012 80.3737 24 80.5628 24C91.5199 24 97.2487 26.4145 102.303 28.5448L102.34 28.5603C107.292 30.658 111.562 32.4639 120.593 32.4638C129.641 32.4638 133.91 30.658 138.862 28.5602C143.813 26.4668 149.436 24.0926 160 24.0026V48H0.000244141V24.0021C0.186211 24.0007 0.373711 24 0.562771 24C11.5199 24 17.2487 26.4145 22.3031 28.5448L22.3398 28.5603C27.2922 30.658 31.5617 32.4639 40.5931 32.4638C49.6406 32.4638 53.9097 30.658 58.8623 28.5602Z" fill="#C7B6DA" id="path7" />
	</g>
</svg>
