<?xml version="1.0" encoding="UTF-8" standalone="no"?>
<svg
   width="147"
   height="179.12199"
   viewBox="0 0 147 179.12199"
   fill="none"
   version="1.1"
   id="svg24"
   sodipodi:docname="svg.svg"
   inkscape:version="1.1 (c4e8f9e, 2021-05-24)"
   xmlns:inkscape="http://www.inkscape.org/namespaces/inkscape"
   xmlns:sodipodi="http://sodipodi.sourceforge.net/DTD/sodipodi-0.dtd"
   xmlns="http://www.w3.org/2000/svg"
   xmlns:svg="http://www.w3.org/2000/svg">
  <defs
     id="defs28" />
  <sodipodi:namedview
     id="namedview26"
     pagecolor="#ffffff"
     bordercolor="#666666"
     borderopacity="1.0"
     inkscape:pageshadow="2"
     inkscape:pageopacity="0.0"
     inkscape:pagecheckerboard="0"
     showgrid="false"
     width="147px"
     inkscape:zoom="1.3631579"
     inkscape:cx="29.710425"
     inkscape:cy="95"
     inkscape:window-width="1366"
     inkscape:window-height="703"
     inkscape:window-x="0"
     inkscape:window-y="0"
     inkscape:window-maximized="1"
     inkscape:current-layer="svg24" />
  <path
     d="M 125.507,52.6061 C 139.692,66.954 147,86.0784 147,104.776 c 0,18.698 -7.308,38.258 -21.493,52.606 -14.184,14.348 -33.0911,21.74 -52.007,21.74 -18.916,0 -37.8228,-7.392 -52.0075,-21.74 C 7.30782,143.034 0,123.474 0,104.776 0,86.0784 7.30782,66.954 21.4925,52.6061 L 73.5,0 Z"
     fill="#ff7a00"
     id="path2" />
  <path
     id="path31"
     style="fill:#f2eef5;stroke-width:1"
     d="m 71.438,51.329166 c 0,19.726921 -15.991941,35.71875 -35.719,35.71875 C 15.991941,87.047916 0,71.056087 0,51.329166 0,41.465706 4.101449,32.637851 10.461853,26.072196 L 35.719,0 60.976147,26.072196 C 67.336551,32.637851 71.438,41.465706 71.438,51.329166 Z" />
</svg>
