<?xml version="1.0" encoding="UTF-8" standalone="no"?>
<!-- Created with Inkscape (http://www.inkscape.org/) -->

<svg
   width="500"
   height="22"
   viewBox="0 0 132.29 5.82076"
   version="1.1"
   id="svg5"
   inkscape:version="1.1 (c68e22c387, 2021-05-23)"
   sodipodi:docname="wave.svg"
   xmlns:inkscape="http://www.inkscape.org/namespaces/inkscape"
   xmlns:sodipodi="http://sodipodi.sourceforge.net/DTD/sodipodi-0.dtd"
   xmlns="http://www.w3.org/2000/svg"
   xmlns:svg="http://www.w3.org/2000/svg">
  <sodipodi:namedview
     id="namedview7"
     pagecolor="#ffffff"
     bordercolor="#666666"
     borderopacity="1.0"
     inkscape:pageshadow="2"
     inkscape:pageopacity="0.0"
     inkscape:pagecheckerboard="0"
     inkscape:document-units="px"
     showgrid="false"
     units="px"
     inkscape:zoom="2.096401"
     inkscape:cx="264.97793"
     inkscape:cy="26.950951"
     inkscape:window-width="1920"
     inkscape:window-height="1017"
     inkscape:window-x="1912"
     inkscape:window-y="32"
     inkscape:window-maximized="1"
     inkscape:current-layer="layer1" />
  <defs
     id="defs2" />
  <g
     inkscape:label="Layer 1"
     inkscape:groupmode="layer"
     id="layer1">
    <path
       id="rect31"
       style="fill:#46437c;stroke:#000000;stroke-width:0"
       d="m 0,0 v 22 c 34.130471,0 65.869529,0 100,0 34.13047,0 65.86949,0 100,0 34.13044,4e-6 65.86954,0 100,0 34.13046,0 65.86956,2e-6 100,0 34.13051,-2e-6 65.86953,0 100,0 v 0 C 465.86953,22.000002 434.13051,-1.5118301e-6 400,0 365.86956,1.5118301e-6 334.13046,21.999998 300,22 265.86954,22 234.13044,0 200,0 165.86949,-3.7795752e-6 134.13047,22 100,22 65.869529,22 34.130471,-3.7795752e-6 0,0 Z"
       transform="scale(0.26458)"
       sodipodi:nodetypes="ccssssccssssc" />
  </g>
</svg>
