<svg width="360" height="432" viewBox="0 0 360 432" fill="none" xmlns="http://www.w3.org/2000/svg">
	<mask id="mask0" mask-type="alpha" maskUnits="userSpaceOnUse" x="0" y="0" width="360" height="432">
		<path d="M52.6348 126.873C17.8968 161.477 0 207.601 0 252.695C0 297.79 17.8968 344.965 52.6348 379.569C87.3728 414.172 133.675 432 180 432C226.325 432 272.627 414.172 307.365 379.569C342.103 344.965 360 297.79 360 252.695C360 207.601 342.103 161.477 307.365 126.873L180 0L52.6348 126.873Z" fill="white" />
	</mask>
	<g mask="url(#mask0)">
		<rect x="0.00222778" width="360" height="432" fill="white" />
		<path d="M529.761 257.042C574.319 238.201 624.922 216.834 720.002 216.024C721.676 216.011 723.363 216 725.065 216C823.679 216 875.238 237.731 920.727 256.903L921.058 257.042C965.629 275.922 1004.05 292.175 1085.34 292.175C1166.77 292.175 1205.19 275.922 1249.76 257.042C1294.32 238.201 1344.92 216.834 1440 216.024V432H0.00219727V216.019C1.6759 216.006 3.3634 216 5.06494 216C103.679 216 155.238 237.731 200.727 256.903L201.058 257.042C245.629 275.922 284.055 292.175 365.338 292.175C446.766 292.175 485.187 275.922 529.761 257.042Z" fill="#C7B6DA" />
	</g>
</svg>
